# Blender 4.1.1
# www.blender.org
mtllib house.mtl
g HouseWalls_Cube
v 2.000000 2.000000 -3.000000
v 2.000000 -2.000000 -3.000000
v 2.000000 2.000000 3.000000
v 2.000000 -2.000000 3.000000
v -2.000000 2.000000 -3.000000
v -1.924243 -0.627373 2.030274
v -1.924243 0.714893 2.030274
v -2.000000 -2.000000 -3.000000
v -2.000000 2.000000 3.000000
v -1.924243 -0.627373 0.688008
v -2.000000 0.974710 -1.668840
v -1.924243 0.714893 0.688008
v -2.000000 -2.000000 3.000000
v 0.000000 3.241028 3.000000
v 0.000000 3.241028 -3.000000
v 2.000000 -1.554331 -3.000000
v -2.000000 -1.554331 3.000000
v 2.000000 -1.554331 3.000000
v -2.000000 -1.554331 -3.000000
v -2.312890 -2.000000 -3.469335
v -2.312890 -2.000000 3.469335
v 2.312890 -2.000000 -3.469335
v 2.312890 -1.554331 -3.469335
v 2.312890 -1.554331 3.469335
v 2.312890 -2.000000 3.469335
v -2.312890 -1.554331 -3.469335
v -2.312890 -1.554331 3.469335
v -2.000000 0.974710 -0.052655
v -2.000000 -1.550419 -0.052655
v -2.000000 -1.550419 -1.668840
v -2.000000 -0.627373 0.688008
v -2.000000 0.714893 0.688008
v -2.000000 -0.627373 2.030274
v -2.000000 0.714893 2.030274
v 2.000000 2.000000 -1.832880
v 2.000000 2.000000 0.167120
v 2.000000 -2.000000 -1.832880
v 2.000000 -2.000000 0.167120
v -2.312890 -2.000000 -1.989325
v -2.312890 -2.000000 0.323565
v 2.312890 -2.000000 -1.989325
v 2.312890 -2.000000 0.323565
v 2.312890 -1.554331 -1.989325
v 2.312890 -1.554331 0.323565
v -2.312890 -1.554331 -1.989325
v -2.312890 -1.554331 0.323565
v 2.000000 -1.554331 -1.832880
v 2.000000 -1.554331 0.167120
v -2.000000 -1.554331 0.167120
v -2.000000 -1.554331 -1.832880
v -2.000000 -2.000000 -1.832880
v -2.000000 -2.000000 0.167120
v -2.923383 -2.000000 -1.989325
v -2.923383 -2.000000 0.323565
v -2.923383 -1.554331 -1.989325
v -2.923383 -1.554331 0.323565
v -2.923383 -1.777165 0.323565
v -2.923383 -1.777165 -1.989325
v -3.381694 -2.000000 -1.989325
v -3.381694 -2.000000 0.323565
v -3.381694 -1.777165 0.323565
v -3.381694 -1.777165 -1.989325
vn -0.0000 -0.0000 1.0000
vn -1.0000 -0.0000 -0.0000
vn -0.0000 -1.0000 -0.0000
vn 1.0000 -0.0000 -0.0000
vn -0.0000 -0.0000 -1.0000
vn -0.0000 1.0000 -0.0000
vt 0.500000 0.750000
vt 0.625000 0.750000
vt 0.625000 1.000000
vt 0.500000 1.000000
vt 0.588942 0.194535
vt 0.625000 0.250000
vt 0.500000 0.250000
vt 0.500138 0.194535
vt 0.500138 0.127194
vt 0.500000 0.166667
vt 0.500000 0.083333
vt 0.500000 0.000000
vt 0.625000 0.000000
vt 0.588942 0.127194
vt 0.579805 0.096333
vt 0.579805 0.040405
vt 0.532600 0.040405
vt 0.532600 0.096333
vt 0.125000 0.666667
vt 0.375000 0.666667
vt 0.375000 0.750000
vt 0.125000 0.750000
vt 0.500000 0.666667
vt 0.625000 0.666667
vt 0.625000 0.500000
vt 0.500000 0.500000
vt 0.375000 0.500000
vt 0.125000 0.500000
vt 0.375000 0.250000
vt 0.375000 0.166667
vt 0.500000 0.166667
vt 0.375000 1.000000
vt 0.375000 0.583333
vt 0.625000 0.485890
vt 0.375000 0.485890
vt 0.375000 0.764110
vt 0.625000 0.764110
vt 0.360890 0.750000
vt 0.360890 0.500000
vt 0.639110 0.500000
vt 0.639110 0.750000
vt 0.125000 0.583333
vt 0.500000 0.083333
vt 0.375000 0.000000
vt 0.375000 0.083333
vt 0.437500 0.083333
vt 0.500000 0.583333
vt 0.625000 0.583333
vt 0.437500 0.166667
s 0
usemtl Material
f 18/1/1 3/2/1 9/3/1 17/4/1
f 11/5/2 5/6/2 19/7/2 30/8/2
f 29/9/2 30/8/2 19/7/2 50/10/2 49/11/2 17/12/2 9/13/2 5/6/2 11/5/2 28/14/2 32/15/2 34/16/2 33/17/2 31/18/2
f 28/14/2 29/9/2 31/18/2 32/15/2
f 52/19/3 38/20/3 4/21/3 13/22/3
f 48/23/4 36/24/4 3/2/4 18/1/4
f 19/7/5 5/6/5 1/25/5 16/26/5
f 1/25/5 5/6/5 15/25/5
f 9/3/1 3/2/1 14/3/1
f 48/23/6 18/1/6 24/1/6 44/23/6
f 2/27/3 8/28/3 20/28/3 22/27/3
f 18/1/6 17/4/6 27/4/6 24/1/6
f 19/7/6 16/26/6 23/26/6 26/7/6
f 20/29/5 26/7/5 23/26/5 22/27/5
f 42/20/4 44/23/4 24/1/4 25/21/4
f 39/30/2 45/31/2 26/7/2 20/29/2
f 25/21/1 24/1/1 27/4/1 21/32/1
f 13/22/3 4/21/3 25/21/3 21/22/3
f 50/10/6 19/7/6 26/7/6 45/31/6
f 52/19/3 13/22/3 21/22/3 40/19/3
f 37/33/3 2/27/3 22/27/3 41/33/3
f 10/27/1 12/25/1 32/34/1 31/35/1
f 7/2/5 6/21/5 33/36/5 34/37/5
f 33/38/6 6/21/6 10/27/6 31/39/6
f 32/40/3 12/25/3 7/2/3 34/41/3
f 4/21/3 38/20/3 42/20/3 25/21/3
f 38/20/3 37/33/3 41/33/3 42/20/3
f 8/28/3 51/42/3 39/42/3 20/28/3
f 51/42/3 52/19/3 40/19/3 39/42/3
f 17/12/6 49/11/6 46/43/6 27/12/6
f 49/11/6 50/10/6 45/31/6 46/43/6
f 21/44/2 27/12/2 46/43/2 40/45/2
f 40/45/1 46/43/1 56/43/1 57/46/1 54/45/1
f 22/27/4 23/26/4 43/47/4 41/33/4
f 41/33/4 43/47/4 44/23/4 42/20/4
f 16/26/6 47/47/6 43/47/6 23/26/6
f 47/47/6 48/23/6 44/23/6 43/47/6
f 16/26/4 1/25/4 35/48/4 47/47/4
f 47/47/4 35/48/4 36/24/4 48/23/4
f 8/28/3 2/27/3 37/33/3 51/42/3
f 51/42/3 37/33/3 38/20/3 52/19/3
f 54/45/1 57/46/1 61/46/1 60/45/1
f 46/43/6 45/31/6 55/31/6 56/43/6
f 39/42/3 40/19/3 54/19/3 53/42/3
f 45/31/5 39/30/5 53/30/5 58/49/5 55/31/5
f 60/45/2 61/46/2 62/49/2 59/30/2
f 58/49/2 57/46/2 56/43/2 55/31/2
f 53/42/3 54/19/3 60/19/3 59/42/3
f 58/49/5 53/30/5 59/30/5 62/49/5
f 57/46/6 58/49/6 62/49/6 61/46/6
g Roof_Cube.001
v 2.000000 2.000000 -3.402452
v 2.000000 2.000000 3.402452
v -2.000000 2.000000 -3.402452
v -2.000000 2.000000 3.402452
v 0.000000 3.241028 3.402452
v 0.000000 3.241028 -3.402452
v 2.162607 2.262052 -3.402452
v 2.162607 2.262052 3.402452
v -2.162607 2.262052 3.402452
v -2.162607 2.262052 -3.402452
v 2.000000 2.000000 -3.402452
v 2.000000 2.000000 3.402452
v -2.000000 2.000000 3.402452
v -2.000000 2.000000 -3.402452
v 2.162607 2.262052 -3.402452
v 2.162607 2.262052 3.402452
v -2.162607 2.262052 3.402452
v -2.162607 2.262052 -3.402452
v 2.223083 1.861574 -3.402452
v 2.223083 1.861574 3.402452
v -2.223083 1.861574 3.402452
v -2.223083 1.861574 -3.402452
v 2.385689 2.123626 -3.402452
v 2.385689 2.123626 3.402452
v -2.385689 2.123626 3.402452
v -2.385689 2.123626 -3.402452
v -0.180631 3.441903 -3.402452
v 0.180631 3.441903 -3.402452
v 0.000000 3.339217 -3.402452
v -0.097757 3.474867 -3.402452
v -0.000000 3.486442 -3.402452
v 0.097757 3.474867 -3.402452
v 0.180631 3.441903 3.402452
v -0.180631 3.441903 3.402452
v 0.000000 3.339217 3.402452
v 0.097757 3.474867 3.402452
v 0.000000 3.486442 3.402452
v -0.097757 3.474867 3.402452
vn 0.5273 -0.8497 -0.0000
vn -0.5273 -0.8497 -0.0000
vn -0.0000 -0.0000 -1.0000
vn -0.5115 0.8593 -0.0000
vn -0.0000 1.0000 -0.0000
vn -0.0000 -0.0000 1.0000
vn -0.5273 0.8497 -0.0000
vn -0.8497 -0.5273 -0.0000
vn 0.8497 -0.5273 -0.0000
vn 0.5273 0.8497 -0.0000
vn -0.3696 0.9292 -0.0000
vn -0.1176 0.9931 -0.0000
vn 0.1176 0.9931 -0.0000
vn 0.3696 0.9292 -0.0000
vn 0.5115 0.8593 -0.0000
vt 0.625000 0.250000
vt 0.625000 0.000000
vt 0.625000 0.750000
vt 0.625000 0.500000
vt 0.625000 0.250000
vt 0.625000 0.000000
vt 0.625000 0.750000
s 0
usemtl Material
f 65/50/7 68/50/7 67/51/7 66/51/7
f 64/52/8 67/52/8 68/53/8 63/53/8
f 63/53/9 68/53/9 91/53/9 90/53/9 69/53/9
f 72/50/10 71/51/10 96/51/10 89/50/10
f 70/52/11 64/52/11 74/52/11 78/52/11
f 68/50/9 65/50/9 72/50/9 89/50/9 91/50/9
f 65/50/11 66/51/11 75/51/11 76/50/11
f 66/51/12 67/51/12 97/51/12 96/51/12 71/51/12
f 67/52/12 64/52/12 70/52/12 95/52/12 97/52/12
f 76/50/7 75/51/7 83/51/7 84/50/7
f 79/51/13 80/50/13 88/50/13 87/51/13
f 71/51/11 72/50/11 80/50/11 79/51/11
f 72/50/11 65/50/11 76/50/11 80/50/11
f 64/52/11 63/53/11 73/53/11 74/52/11
f 63/53/11 69/53/11 77/53/11 73/53/11
f 69/53/11 70/52/11 78/52/11 77/53/11
f 66/51/11 71/51/11 79/51/11 75/51/11
f 84/50/14 83/51/14 87/51/14 88/50/14
f 82/52/15 81/53/15 85/53/15 86/52/15
f 73/53/9 77/53/9 85/53/9 81/53/9
f 75/51/12 79/51/12 87/51/12 83/51/12
f 77/53/16 78/52/16 86/52/16 85/53/16
f 74/52/8 73/53/8 81/53/8 82/52/8
f 78/52/12 74/52/12 82/52/12 86/52/12
f 80/50/9 76/50/9 84/50/9 88/50/9
f 89/50/9 92/54/9 91/50/9
f 92/54/9 93/50/9 91/50/9
f 93/50/9 94/50/9 91/50/9
f 94/50/9 90/50/9 91/50/9
f 95/51/12 98/55/12 97/51/12
f 98/55/12 99/51/12 97/51/12
f 99/51/12 100/51/12 97/51/12
f 100/51/12 96/51/12 97/51/12
f 89/50/17 96/51/17 100/51/17 92/50/17
f 92/50/18 100/51/18 99/51/18 93/50/18
f 93/53/19 99/52/19 98/56/19 94/53/19
f 94/53/20 98/56/20 95/52/20 90/53/20
f 70/52/21 69/53/21 90/53/21 95/52/21
g Door_Cube.002
v -2.060818 -1.447622 -0.155452
v -2.060818 0.871914 -0.155452
v -2.060818 -1.447622 -1.566044
v -2.060818 0.871914 -1.566044
v -1.832184 -1.550419 -0.052655
v -1.832184 0.974710 -0.052655
v -1.832184 -1.550419 -1.668840
v -1.832184 0.974710 -1.668840
v -2.060818 -1.550419 -1.668840
v -2.060818 -1.550419 -0.052655
v -2.060818 0.974710 -0.052655
v -2.060818 0.974710 -1.668840
v -1.980583 -1.447622 -1.566044
v -1.980583 -1.447622 -0.155452
v -1.980583 0.871914 -0.155452
v -1.980583 0.871914 -1.566044
vn -0.0000 -0.0000 1.0000
vn -0.0000 -0.0000 -1.0000
vn 1.0000 -0.0000 -0.0000
vn -0.0000 -1.0000 -0.0000
vn -0.0000 1.0000 -0.0000
vn -1.0000 -0.0000 -0.0000
vt 0.614823 0.234099
vt 0.385177 0.234099
vt 0.375000 0.250000
vt 0.625000 0.250000
vt 0.625000 0.500000
vt 0.375000 0.500000
vt 0.625000 0.750000
vt 0.375000 0.750000
vt 0.625000 1.000000
vt 0.375000 1.000000
vt 0.125000 0.500000
vt 0.125000 0.750000
vt 0.875000 0.500000
vt 0.875000 0.750000
vt 0.385177 0.015901
vt 0.375000 0.000000
vt 0.614823 0.015901
vt 0.625000 0.000000
s 0
f 104/57/22 103/58/22 113/58/22 116/57/22
f 109/59/23 112/60/23 108/61/23 107/62/23
f 107/62/24 108/61/24 106/63/24 105/64/24
f 105/64/22 106/63/22 111/65/22 110/66/22
f 109/67/25 107/62/25 105/64/25 110/68/25
f 108/61/26 112/69/26 111/70/26 106/63/26
f 101/71/27 103/58/27 109/59/27 110/72/27
f 102/73/27 101/71/27 110/72/27 111/74/27
f 104/57/27 102/73/27 111/74/27 112/60/27
f 103/58/27 104/57/27 112/60/27 109/59/27
f 114/71/27 115/73/27 116/57/27 113/58/27
f 101/71/23 102/73/23 115/73/23 114/71/23
f 102/73/25 104/57/25 116/57/25 115/73/25
f 103/58/26 101/71/26 114/71/26 113/58/26
g Window_Cube.004
v -1.924243 -0.627373 2.030274
v -1.924243 0.714893 2.030274
v -1.924243 -0.627373 0.688008
v -1.924243 0.714893 0.688008
v -1.924243 -0.551208 1.954110
v -1.924243 0.638729 1.954110
v -1.924243 -0.551208 0.764173
v -1.924243 0.638729 0.764173
v -1.924243 -0.551208 1.399611
v -1.924243 -0.551208 1.318671
v -1.924243 0.638729 1.399611
v -1.924243 0.638729 1.318671
v -1.924243 -0.627373 1.404792
v -1.924243 -0.627373 1.313491
v -1.924243 0.714893 1.404792
v -1.924243 0.714893 1.313491
v -1.924243 0.222495 1.954110
v -1.924243 0.296789 1.954110
v -1.924243 0.222495 0.764173
v -1.924243 0.296789 0.764173
v -1.924243 0.217739 2.030274
v -1.924243 0.301545 2.030274
v -1.924243 0.217739 0.688008
v -1.924243 0.301545 0.688008
v -1.924243 0.222495 1.318671
v -1.924243 0.296789 1.318671
v -1.924243 0.222495 1.399611
v -1.924243 0.296789 1.399611
v -1.981611 0.296789 1.954110
v -1.981611 0.638729 1.954110
v -1.981611 -0.551208 1.318671
v -1.981611 -0.551208 0.764173
v -1.981611 0.296789 0.764173
v -1.981611 0.638729 0.764173
v -1.981611 0.638729 1.318671
v -1.981611 0.301545 2.030274
v -1.981611 0.714893 2.030274
v -1.981611 -0.627373 1.313491
v -1.981611 -0.627373 0.688008
v -1.981611 0.301545 0.688008
v -1.981611 0.714893 0.688008
v -1.981611 0.714893 1.313491
v -1.981611 -0.551208 1.954110
v -1.981611 -0.627373 2.030274
v -1.981611 -0.551208 1.399611
v -1.981611 0.638729 1.399611
v -1.981611 -0.627373 1.404792
v -1.981611 0.714893 1.404792
v -1.981611 0.296789 1.318671
v -1.981611 0.296789 1.399611
v -1.981611 0.222495 1.954110
v -1.981611 0.222495 0.764173
v -1.981611 0.217739 2.030274
v -1.981611 0.217739 0.688008
v -1.981611 0.222495 1.318671
v -1.981611 0.222495 1.399611
vn -1.0000 -0.0000 -0.0000
vn -0.0000 -0.0000 -1.0000
vn -0.0000 -1.0000 -0.0000
vn -0.0000 1.0000 -0.0000
vn -0.0000 -0.0000 1.0000
vt 0.536938 0.661938
vt 0.536938 0.735814
vt 0.610814 0.735814
vt 0.610814 0.661938
vt 0.463062 0.588062
vt 0.463062 0.661938
vt 0.536938 0.588062
vt 0.610814 0.588062
vt 0.463062 0.735814
vt 0.625000 0.750000
vt 0.625000 0.666667
vt 0.625000 0.583333
vt 0.625000 0.500000
vt 0.610814 0.514186
vt 0.000000 0.000000
vt 0.389186 0.588062
vt 0.389186 0.514186
vt 0.375000 0.500000
vt 0.375000 0.583333
vt 0.375000 0.666667
vt 0.375000 0.750000
vt 0.389186 0.735814
vt 0.389186 0.661938
vt 0.458333 0.750000
vt 0.541667 0.750000
vt 0.536938 0.514186
vt 0.463062 0.514186
vt 0.541667 0.500000
vt 0.458333 0.500000
s 0
usemtl Material
f 144/75/28 134/76/28 122/77/28 127/78/28
f 171/79/28 172/80/28 166/75/28 165/81/28
f 165/81/28 166/75/28 162/78/28 151/82/28
f 172/80/28 167/83/28 145/76/28 166/75/28
f 162/78/28 146/77/28 153/84/28 164/85/28 158/86/28 157/87/28 150/88/28 151/82/28
f 139/89/29 119/89/29 155/89/29 170/89/29
f 147/90/28 148/91/28 155/92/28 154/93/28 163/94/28 160/95/28 159/96/28 161/97/28
f 167/83/28 159/96/28 160/95/28 169/98/28 152/99/28 153/84/28 146/77/28 145/76/28
f 147/90/28 161/97/28 172/80/28 171/79/28
f 136/100/28 142/81/28 128/82/28 124/88/28
f 119/89/30 130/89/30 154/89/30 155/89/30
f 118/89/31 131/89/31 164/89/31 153/89/31
f 137/89/32 138/89/32 152/89/32 169/89/32
f 123/91/28 126/90/28 141/79/28 135/101/28
f 138/89/32 118/89/32 153/89/32 152/89/32
f 130/89/30 129/89/30 163/89/30 154/89/30
f 149/100/28 150/88/28 157/87/28 156/102/28 170/103/28 155/92/28 148/91/28 168/101/28
f 117/89/32 137/89/32 169/89/32 160/89/32
f 168/101/28 171/79/28 165/81/28 149/100/28
f 125/97/28 121/96/28 133/83/28 143/80/28
f 124/88/30 128/82/30 151/82/30 150/88/30
f 129/89/30 117/89/30 160/89/30 163/89/30
f 131/89/31 132/89/31 158/89/31 164/89/31
f 143/80/30 133/83/30 167/83/30 172/80/30
f 120/89/29 140/89/29 156/89/29 157/89/29
f 140/89/29 139/89/29 170/89/29 156/89/29
f 134/76/31 144/75/31 166/75/31 145/76/31
f 132/89/31 120/89/31 157/89/31 158/89/31
f 141/79/29 126/90/29 147/90/29 171/79/29
f 125/97/32 143/80/32 172/80/32 161/97/32
f 128/82/29 142/81/29 165/81/29 151/82/29
f 144/75/32 127/78/32 162/78/32 166/75/32
f 121/96/31 125/97/31 161/97/31 159/96/31
f 133/83/29 121/96/29 159/96/29 167/83/29
f 135/101/30 141/79/30 171/79/30 168/101/30
f 122/77/29 134/76/29 145/76/29 146/77/29
f 127/78/30 122/77/30 146/77/30 162/78/30
f 142/81/31 136/100/31 149/100/31 165/81/31
f 126/90/31 123/91/31 148/91/31 147/90/31
f 123/91/32 135/101/32 168/101/32 148/91/32
f 136/100/32 124/88/32 150/88/32 149/100/32
g Chimney_Cube.005
v -1.299739 2.539794 -1.649988
v -1.299739 3.856749 -1.649988
v -1.299739 2.539794 -2.560958
v -1.299739 3.856749 -2.560958
v -0.388768 2.539794 -1.649988
v -0.388768 3.856749 -1.649988
v -0.388768 2.539794 -2.560958
v -0.388768 3.856749 -2.560958
v -1.299739 4.034163 -1.649988
v -1.299739 4.034163 -2.560958
v -0.388768 4.034163 -2.560958
v -0.388768 4.034163 -1.649988
v -1.386964 3.856749 -1.562763
v -1.386964 3.856749 -2.648183
v -0.301543 3.856749 -2.648183
v -0.301543 3.856749 -1.562763
v -1.386964 4.034163 -1.562763
v -1.386964 4.034163 -2.648183
v -0.301543 4.034163 -2.648183
v -0.301543 4.034163 -1.562763
vn -1.0000 -0.0000 -0.0000
vn -0.0000 -0.0000 -1.0000
vn 1.0000 -0.0000 -0.0000
vn -0.0000 -0.0000 1.0000
vn -0.0000 -1.0000 -0.0000
vn -0.0000 1.0000 -0.0000
vt 0.375000 0.000000
vt 0.625000 0.000000
vt 0.625000 0.250000
vt 0.375000 0.250000
vt 0.625000 0.500000
vt 0.375000 0.500000
vt 0.625000 0.750000
vt 0.375000 0.750000
vt 0.625000 1.000000
vt 0.375000 1.000000
vt 0.125000 0.500000
vt 0.125000 0.750000
vt 0.875000 0.500000
vt 0.875000 0.750000
s 0
f 173/104/33 174/105/33 176/106/33 175/107/33
f 175/107/34 176/106/34 180/108/34 179/109/34
f 179/109/35 180/108/35 178/110/35 177/111/35
f 177/111/36 178/110/36 174/112/36 173/113/36
f 175/114/37 179/109/37 177/111/37 173/115/37
f 174/112/37 178/110/37 188/110/37 185/112/37
f 183/108/38 182/116/38 181/117/38 184/110/38
f 176/106/37 174/105/37 185/105/37 186/106/37
f 182/116/38 183/108/38 191/108/38 190/116/38
f 184/110/38 181/117/38 189/117/38 192/110/38
f 186/106/33 185/105/33 189/105/33 190/106/33
f 185/112/36 188/110/36 192/110/36 189/112/36
f 187/108/34 186/106/34 190/106/34 191/108/34
f 188/110/35 187/108/35 191/108/35 192/110/35
f 180/108/37 176/106/37 186/106/37 187/108/37
f 183/108/38 184/110/38 192/110/38 191/108/38
f 181/117/38 182/116/38 190/116/38 189/117/38
f 178/110/37 180/108/37 187/108/37 188/110/37
